<svg width="46" height="40" viewBox="0 0 46 40" fill="none" xmlns="http://www.w3.org/2000/svg">
<path d="M10.4324 12.5536C10.4324 11.087 11.0885 9.77031 12.1147 8.85364V6.72031C12.1147 5.33697 13.2419 4.22031 14.6383 4.22031C16.0346 4.22031 17.1618 5.33697 17.1618 6.72031V7.55364H30.6208V6.72031C30.6208 5.35364 31.7479 4.22031 33.1443 4.22031C34.5238 4.22031 35.6679 5.33697 35.6679 6.72031V8.85364C36.6941 9.77031 37.3502 11.087 37.3502 12.5536V29.2203C37.3502 35.0536 31.3274 35.887 23.8913 35.887C16.4552 35.887 10.4324 35.0536 10.4324 29.2203V12.5536ZM16.3207 10.887C14.9243 10.887 13.7971 12.0036 13.7971 13.387C13.7971 14.7703 14.9243 15.887 16.3207 15.887C17.717 15.887 18.8442 14.7703 18.8442 13.387C18.8442 12.0036 17.717 10.887 16.3207 10.887ZM31.4619 10.887C30.0656 10.887 28.9384 12.0036 28.9384 13.387C28.9384 14.7703 30.0656 15.887 31.4619 15.887C32.8583 15.887 33.9855 14.7703 33.9855 13.387C33.9855 12.0036 32.8583 10.887 31.4619 10.887ZM33.9855 20.887H13.7971V29.2203H33.9855V20.887Z" fill="white"/>
</svg>
