<svg width="46" height="40" viewBox="0 0 46 40" fill="none" xmlns="http://www.w3.org/2000/svg">
<path d="M27.9789 33.8679C27.32 34.5203 26.4266 34.8867 25.4951 34.8867C24.5636 34.8867 23.6702 34.5203 23.0113 33.8679L7.58384 18.5829C7.25756 18.2597 6.99874 17.8759 6.82216 17.4536C6.64557 17.0313 6.55469 16.5786 6.55469 16.1215C6.55469 15.6644 6.64557 15.2118 6.82216 14.7894C6.99874 14.3671 7.25756 13.9834 7.58384 13.6601L9.41409 11.8485C10.2105 11.058 11.3302 11.1988 12.0064 11.5979C12.3794 11.8173 12.8156 11.9074 13.246 11.8539C13.6764 11.8004 14.0766 11.6064 14.3834 11.3025C14.6901 10.9986 14.8859 10.6022 14.9399 10.1758C14.9939 9.74937 14.903 9.31729 14.6815 8.94776C14.2802 8.27788 14.1365 7.16864 14.9345 6.37963L16.7663 4.56647C17.0926 4.24323 17.4799 3.98682 17.9062 3.81189C18.3326 3.63696 18.7895 3.54692 19.2509 3.54692C19.7123 3.54692 20.1692 3.63696 20.5955 3.81189C21.0218 3.98682 21.4092 4.24323 21.7355 4.56647L37.1614 19.8484C37.4877 20.1716 37.7465 20.5554 37.9231 20.9777C38.0997 21.4 38.1906 21.8527 38.1906 22.3098C38.1906 22.7669 38.0997 23.2196 37.9231 23.6419C37.7465 24.0642 37.4877 24.4479 37.1614 24.7712L35.3327 26.5843C34.5363 27.3734 33.415 27.2341 32.7388 26.835C32.3658 26.6156 31.9297 26.5255 31.4992 26.579C31.0688 26.6325 30.6686 26.8265 30.3619 27.1303C30.0551 27.4342 29.8593 27.8307 29.8053 28.2571C29.7513 28.6835 29.8422 29.1156 30.0637 29.4851C30.4666 30.155 30.6087 31.2642 29.8107 32.0532L27.9805 33.8679H27.9789Z" fill="white"/>
</svg>
