<svg width="46" height="40" viewBox="0 0 46 40" fill="none" xmlns="http://www.w3.org/2000/svg">
<path d="M34.4984 28.4974C34.1832 29.3578 33.3007 29.9703 32.2606 29.9703H28.3208V31.4286C28.3208 32.2307 27.6116 32.887 26.7448 32.887H20.4411C19.5744 32.887 18.8652 32.2307 18.8652 31.4286V29.9703H14.9254C13.8853 29.9703 13.0185 29.3578 12.6876 28.4974L9.58302 20.2286C9.4727 19.9224 9.40967 19.6015 9.40967 19.2661V8.82446C9.40967 7.61405 10.4655 6.63696 11.7736 6.63696C13.0816 6.63696 14.1374 7.61405 14.1374 8.82446V9.55363H33.0486V8.82446C33.0486 7.62863 34.1044 6.63696 35.4124 6.63696C36.7047 6.63696 37.7763 7.61405 37.7763 8.82446V19.2661C37.7763 19.587 37.7133 19.9224 37.603 20.2286L34.4984 28.4974ZM14.9254 13.9286C13.6174 13.9286 12.5615 14.9057 12.5615 16.1161C12.5615 17.3265 13.6174 18.3036 14.9254 18.3036C16.2334 18.3036 17.2893 17.3265 17.2893 16.1161C17.2893 14.9057 16.2334 13.9286 14.9254 13.9286ZM32.2606 13.9286C30.9526 13.9286 29.8967 14.9057 29.8967 16.1161C29.8967 17.3265 30.9526 18.3036 32.2606 18.3036C33.5686 18.3036 34.6245 17.3265 34.6245 16.1161C34.6245 14.9057 33.5686 13.9286 32.2606 13.9286ZM12.5615 21.2203L14.9254 27.7828H32.2606L34.6245 21.2203H12.5615Z" fill="white"/>
</svg>
