<svg width="45" height="40" viewBox="0 0 45 40" fill="none" xmlns="http://www.w3.org/2000/svg">
<path d="M32.6918 31.887H11.8045C10.3646 31.887 9.1936 30.7269 9.1936 29.3004V11.1945C9.1936 9.768 10.3646 8.60792 11.8045 8.60792H32.6918C34.1317 8.60792 35.3027 9.768 35.3027 11.1945V29.3004C35.3027 30.7269 34.1317 31.887 32.6918 31.887ZM32.6931 24.1273C32.6918 24.1273 32.6918 24.1273 32.6931 24.1273H32.0861L28.6044 29.3004H32.6918L32.6931 24.1273ZM26.8173 16.3676L19.6373 12.4878V20.2474L26.8173 16.3676ZM25.5588 24.1273L22.0772 29.3004H25.4661L28.9478 24.1273H25.5588V24.1273ZM22.4205 24.1273H19.0315L15.5499 29.3004H18.9388L22.4205 24.1273ZM11.8045 29.3004H12.4116L15.8932 24.1273H11.8045V29.3004Z" fill="white"/>
</svg>
