<svg width="45" height="40" viewBox="0 0 45 40" fill="none" xmlns="http://www.w3.org/2000/svg">
<path d="M21.5492 24.3439H23.8394V25.4783C23.8394 25.7792 23.9601 26.0677 24.1748 26.2804C24.3896 26.4932 24.6808 26.6127 24.9845 26.6127H28.4199C28.7236 26.6127 29.0148 26.4932 29.2296 26.2804C29.4443 26.0677 29.565 25.7792 29.565 25.4783V24.3439H34.1454V28.8814C34.1454 30.0849 33.6629 31.239 32.8039 32.0899C31.9448 32.9409 30.7798 33.4189 29.565 33.4189H15.8236C14.6088 33.4189 13.4437 32.9409 12.5847 32.0899C11.7257 31.239 11.2432 30.0849 11.2432 28.8814V24.3439H15.8236V25.4783C15.8236 25.7792 15.9443 26.0677 16.159 26.2804C16.3738 26.4932 16.665 26.6127 16.9687 26.6127H20.4041C20.7078 26.6127 20.999 26.4932 21.2138 26.2804C21.4285 26.0677 21.5492 25.7792 21.5492 25.4783V24.3439Z" fill="white"/>
<path d="M12.3884 22.0752C10.87 22.0752 9.4137 21.4776 8.34 20.4139C7.26629 19.3502 6.66309 17.9075 6.66309 16.4033V7.32825C6.66309 7.0274 6.78373 6.73887 6.99847 6.52613C7.21321 6.31339 7.50446 6.19388 7.80815 6.19388C8.11184 6.19388 8.40309 6.31339 8.61783 6.52613C8.83258 6.73887 8.95322 7.0274 8.95322 7.32825V13.0001H36.4348V7.32825C36.4348 7.0274 36.5554 6.73887 36.7702 6.52613C36.9849 6.31339 37.2762 6.19388 37.5798 6.19388C37.8835 6.19388 38.1748 6.31339 38.3895 6.52613C38.6043 6.73887 38.7249 7.0274 38.7249 7.32825V16.4033C38.7249 17.9075 38.1217 19.3502 37.048 20.4139C35.9743 21.4776 34.518 22.0752 32.9996 22.0752H12.3884Z" fill="white"/>
</svg>
