<svg width="45" height="39" viewBox="0 0 45 39" fill="none" xmlns="http://www.w3.org/2000/svg">
<path d="M32.6918 7.61304H11.8045C10.3646 7.61304 9.1936 8.77311 9.1936 10.1996V28.3055C9.1936 29.732 10.3646 30.8921 11.8045 30.8921H32.6918C34.1317 30.8921 35.3027 29.732 35.3027 28.3055V10.1996C35.3027 8.77311 34.1317 7.61304 32.6918 7.61304ZM32.6931 15.3727C32.6918 15.3727 32.6918 15.3727 32.6931 15.3727H32.0861L28.6044 10.1996H32.6918L32.6931 15.3727ZM26.8173 23.1324L19.6373 27.0122V19.2526L26.8173 23.1324ZM25.5588 15.3727L22.0772 10.1996H25.4661L28.9478 15.3727H25.5588V15.3727ZM22.4205 15.3727H19.0315L15.5499 10.1996H18.9388L22.4205 15.3727ZM11.8045 10.1996H12.4116L15.8932 15.3727H11.8045V10.1996Z" fill="white"/>
</svg>
