<svg width="46" height="40" viewBox="0 0 46 40" fill="none" xmlns="http://www.w3.org/2000/svg">
<path d="M33.3568 7.5998C33.3019 8.77323 33.2292 9.94044 33.171 11.1051C32.9829 14.7482 32.9983 18.4448 32.8014 22.106C32.6046 25.7398 32.7213 29.376 32.6175 33.0097C32.5965 33.7649 32.6303 35.2563 31.8488 35.6868C30.1679 36.6116 29.1699 34.089 28.7423 33.062C27.9714 31.1979 27.526 29.2373 26.9753 27.306C26.506 25.6529 25.9716 24.0052 25.7904 22.2936C25.6563 21.0093 25.6686 19.5716 26.3395 18.4144C26.6764 17.8328 27.259 17.437 27.9223 17.2697C28.6107 17.0935 29.3978 17.3241 30.0511 17.0133C30.2195 16.9319 30.3678 16.7628 30.4354 16.5921C30.6471 16.0418 30.4469 15.207 30.3807 14.6393C30.171 12.8106 29.9492 10.9637 29.85 9.12622C29.7913 8.01498 29.7263 6.5918 30.3986 5.62363C30.8106 5.03568 31.6457 4.48667 32.3992 4.7789C33.5253 5.20995 33.4036 6.66603 33.3568 7.5998Z" fill="white"/>
<path d="M19.0302 34.8756C18.7066 34.7459 18.8293 33.5888 18.8149 33.2333C18.7936 32.5946 18.8372 31.7494 18.7603 30.9217C18.7599 30.9143 18.7588 30.9091 18.7577 30.904C18.751 30.8465 18.7456 30.7844 18.7362 30.7189C18.7261 30.6556 18.7153 30.5946 18.7076 30.532C18.6386 30.1284 18.5073 29.6505 18.259 29.4214C17.9772 29.1593 17.3456 29.2144 17.1263 29.5241C16.7675 30.0281 16.7944 31.1535 16.7726 31.1867C16.758 31.7191 16.6804 33.3294 16.5641 34.3911C16.5544 34.4711 16.539 34.9523 16.0996 35.0037C15.8947 35.026 15.6791 34.8514 15.6092 34.5325C15.4029 33.5912 15.2096 31.7969 15.1975 31.5147C15.195 31.4874 15.1938 31.4555 15.1937 31.4288C15.1937 31.4288 15.1926 31.4237 15.1932 31.4214C15.1919 31.3629 15.1221 29.9571 14.7663 29.4721C14.5804 29.2178 14.0977 29.0179 13.618 29.2869C13.4269 29.3952 13.296 29.604 13.2037 29.8276C12.7021 31.389 13.1524 33.109 13.2165 33.9286C13.2354 34.1591 13.4442 34.9288 12.9785 34.9031C12.2772 34.865 11.3717 31.8773 11.2098 31.1925C10.8128 29.4887 10.7526 27.6681 11.4431 26.0246C11.8267 25.1144 12.577 24.3694 13.5073 24.0082C13.9185 23.85 14.3755 23.7352 14.8593 23.6686C14.6852 19.7952 14.4876 15.7532 14.3076 13.5038C14.1691 11.811 14.0057 10.0996 14.0277 8.39968C14.0407 7.38407 14.03 6.1731 14.6966 5.32158C15.394 4.43191 16.8649 4.84119 17.2621 5.89244C17.7076 7.07749 17.578 8.45842 17.4263 10.6343C17.274 12.8124 17.1025 15.7837 17.008 17.3823C16.8697 19.7363 16.8215 21.7933 16.8082 23.6701C18.0469 23.8471 19.2021 24.3786 19.8487 25.356C20.1323 25.7836 20.3191 26.2612 20.4466 26.7527C20.6423 27.4972 20.7377 28.3127 20.6954 29.0806C20.6524 29.7876 20.0714 35.2927 19.0302 34.8756Z" fill="white"/>
</svg>
