<svg width="241" height="80" viewBox="0 0 241 80" fill="none" xmlns="http://www.w3.org/2000/svg">
<g clip-path="url(#clip0_1_1990)">
<path d="M67.5062 35.4728H69.4963C70.7401 35.4728 72.0336 35.7215 72.0336 37.1643C72.0336 38.4081 71.2376 39.3036 68.8993 39.3036H66.7102L67.5062 35.4728ZM58.75 49.5524H64.5211L65.7152 43.831H69.6455C74.6206 43.831 77.8545 40.5474 77.8545 36.7166C77.8545 32.5375 75.6157 30.5972 72.1331 30.5972H62.7301L58.75 49.5524Z" fill="#152C5B"/>
<path d="M84.969 37.1146L85.6655 42.7862H82.0337L84.969 37.1146ZM72.4814 49.5524H78.4516L79.8944 46.8658H86.0635L86.362 49.5524H92.0834L89.1979 30.5972H83.4267L72.4814 49.5524Z" fill="#152C5B"/>
<path d="M94.5213 42.5872L90.4417 30.5972H96.3123L98.1033 37.6618L102.73 30.5972H109.596L100.342 42.5375L98.8994 49.5524H93.0785L94.5213 42.5872Z" fill="#152C5B"/>
<path d="M123.526 42.3384C123.178 44.2787 121.685 50.0001 113.775 50.0001C108.253 50.0001 105.616 46.418 105.616 41.3434C105.616 35.224 109.447 30.0996 115.914 30.0996C120.143 30.0996 123.924 31.9404 124.024 37.612H118.501C118.551 35.821 117.705 34.826 115.914 34.826C112.68 34.826 111.486 38.5573 111.486 41.2439C111.486 42.8359 111.884 45.224 114.571 45.224C116.412 45.224 117.457 43.9802 117.805 42.2887L123.526 42.3384Z" fill="#152C5B"/>
<path d="M126.909 30.5972H132.78L131.387 37.1643H136.71L138.103 30.5972H143.974L139.994 49.5524H134.173L135.715 42.04H130.392L128.8 49.5524H122.979L126.909 30.5972Z" fill="#152C5B"/>
<path d="M145.516 30.5972H161.188L160.193 35.4728H150.342L149.845 37.8111H158.999L158.054 42.3385H148.899L148.402 44.6768H158.452L157.457 49.5524H141.536L145.516 30.5972Z" fill="#152C5B"/>
<path d="M165.218 39.5026L160.84 30.5972H167.208L169.048 35.5225L172.83 30.5972H179.745L171.835 39.5026L176.461 49.5524H169.894L167.805 44.2788L163.377 49.5524H156.213L165.218 39.5026Z" fill="#152C5B"/>
<path d="M180.491 31.4428C180.491 30.7463 180.989 30.199 181.685 30.199C182.332 30.199 182.879 30.7463 182.879 31.4428C182.879 32.1393 182.382 32.6866 181.685 32.6866C181.038 32.6866 180.491 32.1393 180.491 31.4428ZM180.242 31.4428C180.242 32.2886 180.889 32.8856 181.685 32.8856C182.481 32.8856 183.128 32.2886 183.128 31.4428C183.128 30.6468 182.481 30 181.685 30C180.889 30 180.242 30.6468 180.242 31.4428ZM181.138 32.2886H181.387V31.592H181.635L182.083 32.3383H182.382L181.884 31.592C182.133 31.592 182.332 31.4428 182.332 31.1443C182.332 30.796 182.133 30.6468 181.735 30.6468H181.138V32.2886ZM181.387 30.8458H181.735C181.934 30.8458 182.083 30.8955 182.083 31.0945C182.083 31.3433 181.884 31.393 181.635 31.393H181.387V30.8458V30.8458Z" fill="#152C5B"/>
</g>
<defs>
<clipPath id="clip0_1_1990">
<rect width="240" height="80" fill="white" transform="translate(0.75)"/>
</clipPath>
</defs>
</svg>
