<svg width="40" height="40" viewBox="0 0 40 40" fill="none" xmlns="http://www.w3.org/2000/svg">
<path d="M9.99992 31.6667C5.85778 31.6667 3.33325 28.3089 3.33325 24.1667C3.33325 20.0246 6.69112 16.6667 10.8333 16.6667H11.6666V15.0001C11.6666 10.3977 15.3975 6.66675 19.9999 6.66675C24.6023 6.66675 28.3333 10.3977 28.3333 15.0001V16.6667H29.1666C33.3087 16.6667 36.6666 20.0246 36.6666 24.1667C36.6666 28.3089 34.1421 31.6667 29.9999 31.6667" stroke="#6A4BFF" stroke-width="2.5" stroke-linecap="round" stroke-linejoin="round"/>
<path d="M15 32.5V25.8333C15 25.3731 15.3731 25 15.8333 25H24.1667C24.6269 25 25 25.3731 25 25.8333V32.5C25 32.9602 24.6269 33.3333 24.1667 33.3333H15.8333C15.3731 33.3333 15 32.9602 15 32.5Z" stroke="#6A4BFF" stroke-width="2.5" stroke-linecap="round" stroke-linejoin="round"/>
<path d="M16.6665 25V23.3333C16.6665 21.4924 18.1589 20 19.9998 20V20C21.8408 20 23.3332 21.4924 23.3332 23.3333V25" stroke="#6A4BFF" stroke-width="2.5" stroke-linecap="round" stroke-linejoin="round"/>
</svg>
