<svg width="21" height="21" viewBox="0 0 21 21" fill="none" xmlns="http://www.w3.org/2000/svg">
<path d="M10.5001 14.6666C8.20008 14.6666 6.33341 12.7999 6.33341 10.4999C6.33341 8.19992 8.20008 6.33325 10.5001 6.33325C12.8001 6.33325 14.6667 8.19992 14.6667 10.4999C14.6667 12.7999 12.8001 14.6666 10.5001 14.6666ZM10.5001 18.8333C5.90008 18.8333 2.16675 15.0999 2.16675 10.4999C2.16675 5.89992 5.90008 2.16658 10.5001 2.16658C15.1001 2.16658 18.8334 5.89992 18.8334 10.4999C18.8334 15.0999 15.1001 18.8333 10.5001 18.8333ZM10.5001 3.83325C6.81675 3.83325 3.83341 6.81658 3.83341 10.4999C3.83341 14.1833 6.81675 17.1666 10.5001 17.1666C14.1834 17.1666 17.1667 14.1833 17.1667 10.4999C17.1667 6.81658 14.1834 3.83325 10.5001 3.83325Z" fill="#1262AE"/>
</svg>
