<svg width="25" height="24" viewBox="0 0 25 24" fill="none" xmlns="http://www.w3.org/2000/svg">
<path d="M12.0245 3.46352C12.1741 3.00287 12.8259 3.00287 12.9755 3.46353L14.8574 9.25532C14.9243 9.46133 15.1163 9.60081 15.3329 9.60081H21.4228C21.9071 9.60081 22.1085 10.2206 21.7167 10.5053L16.7899 14.0848C16.6146 14.2122 16.5413 14.4379 16.6082 14.6439L18.4901 20.4357C18.6398 20.8963 18.1125 21.2794 17.7207 20.9947L12.7939 17.4152C12.6186 17.2878 12.3814 17.2878 12.2061 17.4152L7.27931 20.9947C6.88745 21.2794 6.36021 20.8963 6.50989 20.4357L8.39176 14.6439C8.4587 14.4379 8.38537 14.2122 8.21012 14.0848L3.28333 10.5053C2.89147 10.2206 3.09286 9.60081 3.57722 9.60081H9.66708C9.88369 9.60081 10.0757 9.46133 10.1426 9.25532L12.0245 3.46352Z" fill="#EF7420"/>
</svg>
