<svg width="241" height="80" viewBox="0 0 241 80" fill="none" xmlns="http://www.w3.org/2000/svg">
<path fill-rule="evenodd" clip-rule="evenodd" d="M137.827 40.4616C137.827 31.7095 133.588 24.8035 125.485 24.8035C117.348 24.8035 112.425 31.7094 112.425 40.3932C112.425 50.6838 118.237 55.8804 126.579 55.8804C130.648 55.8804 133.724 54.9573 136.049 53.6582V46.8206C133.724 47.983 131.058 48.7009 127.673 48.7009C124.357 48.7009 121.417 47.5385 121.041 43.5043H137.759C137.759 43.0599 137.827 41.2821 137.827 40.4616ZM120.938 37.2137C120.938 33.3505 123.297 31.7436 125.451 31.7436C127.536 31.7436 129.759 33.3505 129.759 37.2137H120.938Z" fill="#152C5B"/>
<path fill-rule="evenodd" clip-rule="evenodd" d="M99.2287 24.8035C95.8782 24.8035 93.7244 26.3761 92.5278 27.4701L92.0834 25.3505H84.562V65.2137L93.109 63.4018L93.1432 53.7265C94.374 54.6154 96.1859 55.8804 99.1945 55.8804C105.314 55.8804 110.887 50.9573 110.887 40.1197C110.853 30.2052 105.212 24.8035 99.2287 24.8035ZM97.1774 48.359C95.1603 48.359 93.9637 47.6411 93.1432 46.7522L93.109 34.0684C93.9979 33.077 95.2287 32.3932 97.1774 32.3932C100.289 32.3932 102.442 35.8804 102.442 40.359C102.442 44.9402 100.323 48.359 97.1774 48.359Z" fill="#152C5B"/>
<path fill-rule="evenodd" clip-rule="evenodd" d="M72.8013 22.7863L81.3825 20.9402V14L72.8013 15.812V22.7863Z" fill="#152C5B"/>
<path d="M81.3825 25.3845H72.8013V55.2991H81.3825V25.3845Z" fill="#152C5B"/>
<path fill-rule="evenodd" clip-rule="evenodd" d="M63.6045 27.9145L63.0575 25.3846H55.6729V55.2992H64.2199V35.0257C66.237 32.3932 69.6558 32.8718 70.7156 33.2479V25.3846C69.6216 24.9744 65.6216 24.2222 63.6045 27.9145Z" fill="#152C5B"/>
<path fill-rule="evenodd" clip-rule="evenodd" d="M46.5108 17.9658L38.169 19.7436L38.1348 47.1282C38.1348 52.188 41.9296 55.9145 46.9895 55.9145C49.7929 55.9145 51.8442 55.4017 52.9724 54.7863V47.8462C51.8784 48.2906 46.4766 49.8633 46.4766 44.8034V32.6667H52.9724V25.3846H46.4766L46.5108 17.9658Z" fill="#152C5B"/>
<path fill-rule="evenodd" clip-rule="evenodd" d="M23.3996 34.0684C23.3996 32.7351 24.4936 32.2223 26.3056 32.2223C28.9038 32.2223 32.1859 33.0086 34.7842 34.4103V26.3761C31.9466 25.2479 29.1432 24.8035 26.3056 24.8035C19.3654 24.8035 14.75 28.4274 14.75 34.4787C14.75 43.9146 27.7415 42.4103 27.7415 46.4787C27.7415 48.0513 26.3739 48.5642 24.4594 48.5642C21.6218 48.5642 17.9979 47.4018 15.1261 45.8291V53.9659C18.3056 55.3334 21.5192 55.9146 24.4594 55.9146C31.5705 55.9146 36.4594 52.3932 36.4594 46.2736C36.4252 36.0855 23.3996 37.8975 23.3996 34.0684Z" fill="#152C5B"/>
</svg>
