<svg width="38" height="37" viewBox="0 0 38 37" fill="none" xmlns="http://www.w3.org/2000/svg">
<path d="M2.34554 6.08489L1.99947 5.20052C1.92257 5.00826 1.76877 4.816 1.53806 4.73909L0.653674 4.35458C0.538319 4.31613 0.538319 4.12387 0.653674 4.04697L1.53806 3.7009C1.73032 3.624 1.92257 3.4702 1.99947 3.23949L2.38399 2.3551C2.42244 2.23975 2.6147 2.23975 2.6916 2.3551L3.03766 3.23949C3.11457 3.43175 3.26837 3.624 3.49908 3.7009L4.38346 4.08542C4.49882 4.12387 4.49882 4.31613 4.38346 4.39303L3.49908 4.73909C3.30682 4.816 3.11457 4.96981 3.03766 5.20052L2.65315 6.08489C2.57625 6.20025 2.38399 6.20025 2.34554 6.08489ZM37.3364 19.5045C36.798 29.0404 28.9155 36.5 19.3795 36.5C14.4962 36.5 9.92047 34.5774 6.49829 31.0783C3.07611 27.5793 1.26889 22.9651 1.38425 18.0818C1.38425 17.6972 1.4227 17.3127 1.46115 16.9282C1.46115 16.8129 1.4227 16.659 1.30735 16.5821C0.499867 15.9669 0 15.0056 0 13.929C0 12.1218 1.4227 10.6991 3.19147 10.6222C3.22992 10.6222 3.26837 10.6222 3.34528 10.6222C4.22966 10.6222 5.03714 10.9682 5.61391 11.545C6.26758 12.1602 6.6521 13.0062 6.6521 13.9674C6.6521 15.467 5.65236 16.7744 4.26811 17.1589C4.1143 17.1974 3.99895 17.3512 3.99895 17.505C3.99895 17.7357 3.9605 17.9279 3.9605 18.1587C3.84514 22.5806 5.57546 26.7333 8.80538 29.771C11.4201 32.2319 14.8807 33.7315 18.4567 33.9238C26.7622 34.3852 33.7988 28.2714 34.6832 20.235C34.7217 20.0043 34.5294 19.8121 34.2987 19.8121H25.4933C25.3395 19.8121 25.1857 19.9274 25.1473 20.0812C24.4551 22.619 22.1096 24.5031 19.3795 24.5031C15.9574 24.5031 13.1504 21.5808 13.3811 18.1202C13.5734 15.1594 15.9574 12.7754 18.8797 12.5447C21.8404 12.314 24.4167 14.2751 25.1473 16.9282C25.1857 17.082 25.3395 17.1974 25.5318 17.1974H35.1446C35.7599 17.1974 36.3366 17.4281 36.7211 17.8895C37.1826 18.3125 37.3748 18.9277 37.3364 19.5045ZM22.8017 18.5047C22.8017 16.6206 21.2637 15.0825 19.3795 15.0825C17.4954 15.0825 15.9574 16.6206 15.9574 18.5047C15.9574 20.3888 17.4954 21.9269 19.3795 21.9269C21.2637 21.9269 22.8017 20.3888 22.8017 18.5047ZM2.57625 13.9674C2.57625 14.3904 2.92231 14.698 3.30682 14.698C3.69134 14.698 4.0374 14.352 4.0374 13.9674C4.0374 13.5829 3.69134 13.2369 3.30682 13.2369C2.92231 13.2369 2.57625 13.5445 2.57625 13.9674ZM6.38294 10.2377C6.26759 10.4299 6.03687 10.4684 5.84461 10.353C5.3832 10.0454 4.84488 9.81469 4.30656 9.66088C4.0374 9.62243 3.9605 9.31482 4.07585 9.08411C4.80643 7.93057 5.65236 6.81548 6.61364 5.85419C9.88202 2.54736 14.1886 0.663241 18.8028 0.509435C23.6476 0.355629 28.2618 2.08594 31.7609 5.43122C32.6068 6.2387 33.0683 7.3538 32.9913 8.54579C32.9144 9.73779 32.3761 10.8144 31.4148 11.545C29.8383 12.737 27.6082 12.6601 26.1854 11.3143C25.7625 10.9298 25.3395 10.5837 24.8781 10.2761C24.7243 10.1992 24.5705 10.1992 24.4167 10.3146C23.8399 10.776 23.1093 11.0836 22.3018 11.0836C20.7638 11.0836 19.4564 10.0454 19.1104 8.62269C19.0335 8.35353 18.995 8.04592 18.995 7.77676C18.995 7.16154 19.1873 6.54632 19.4949 6.04645C20.0717 5.08516 21.1483 4.43149 22.3403 4.43149C24.1091 4.43149 25.5318 5.81573 25.6471 7.54605C25.6471 7.66141 25.724 7.77676 25.8394 7.85366C26.6084 8.31508 27.339 8.8534 27.9927 9.50708C28.4925 9.9685 29.3 10.0069 29.8383 9.58398C30.1844 9.31482 30.3767 8.9303 30.4151 8.50734C30.4536 8.08437 30.2613 7.69986 29.9537 7.39225C26.9545 4.54684 22.994 3.04723 18.8412 3.16259C13.6118 3.23949 9.0361 6.0849 6.38294 10.2377ZM23.1093 7.69986C23.1093 7.27689 22.7633 6.96928 22.3787 6.96928C21.9942 6.96928 21.6482 7.31535 21.6482 7.69986C21.6482 8.12283 21.9942 8.46889 22.3787 8.46889C22.7633 8.46889 23.1093 8.12283 23.1093 7.69986ZM17.6877 6.12335C17.9568 6.0849 18.1875 6.3156 18.1106 6.58476C17.9953 6.96928 17.9568 7.31535 17.9568 7.69986C17.9568 7.89212 17.9568 8.08437 17.9953 8.27663C18.0337 8.46889 17.8799 8.66114 17.6877 8.69959C15.6113 9.04566 13.6887 10.0454 12.1891 11.6219C10.305 13.5829 9.30525 16.1592 9.42061 18.8892C9.61287 24.0033 13.8041 28.1945 18.9181 28.4252C21.0714 28.5021 23.1093 27.9253 24.8396 26.8102C24.9935 26.6949 25.0319 26.5026 24.955 26.3104C24.7627 25.8874 24.6089 25.3875 24.6089 24.8877C24.6089 23.0035 26.1854 21.4655 28.108 21.5808C29.7999 21.6577 31.1841 23.042 31.261 24.7339C31.3379 26.6564 29.8383 28.2329 27.9542 28.2329C27.8004 28.2329 27.6466 28.2329 27.4928 28.1945C27.3774 28.1945 27.2621 28.1945 27.1852 28.2714C24.8396 30.1555 21.9173 31.1552 18.7643 31.0014C12.3045 30.7323 7.07506 25.4644 6.8059 19.0046C6.69055 15.5824 7.921 12.314 10.305 9.81469C12.3429 7.77676 14.9192 6.46941 17.6877 6.12335ZM27.2236 24.8877C27.2236 25.3106 27.5697 25.6182 27.9542 25.6182C28.3387 25.6182 28.6848 25.2722 28.6848 24.8877C28.6848 24.5031 28.3387 24.1571 27.9542 24.1571C27.5697 24.1571 27.2236 24.4647 27.2236 24.8877Z" fill="url(#paint0_linear_1_2285)"/>
<defs>
<linearGradient id="paint0_linear_1_2285" x1="18.6706" y1="0.5" x2="18.6706" y2="36.5" gradientUnits="userSpaceOnUse">
<stop stop-color="#0C0047"/>
<stop offset="1" stop-color="#0B0239"/>
</linearGradient>
</defs>
</svg>
