<svg width="24" height="24" viewBox="0 0 24 24" fill="none" xmlns="http://www.w3.org/2000/svg">
<g clip-path="url(#clip0_1_2743)">
<path d="M12 21.8912C9.37669 21.8912 6.86079 20.8491 5.00582 18.9941C3.15084 17.1391 2.10872 14.6232 2.10872 11.9999C2.10872 9.37656 3.15084 6.86067 5.00582 5.00569C6.86079 3.15072 9.37669 2.1086 12 2.1086C14.6234 2.1086 17.1392 3.15072 18.9942 5.00569C20.8492 6.86067 21.8913 9.37656 21.8913 11.9999C21.8913 14.6232 20.8492 17.1391 18.9942 18.9941C17.1392 20.8491 14.6234 21.8912 12 21.8912ZM12 23.3042C14.9981 23.3042 17.8734 22.1133 19.9934 19.9933C22.1134 17.8733 23.3044 14.998 23.3044 11.9999C23.3044 9.0018 22.1134 6.1265 19.9934 4.00652C17.8734 1.88655 14.9981 0.695557 12 0.695557C9.00192 0.695557 6.12662 1.88655 4.00664 4.00652C1.88667 6.1265 0.695679 9.0018 0.695679 11.9999C0.695679 14.998 1.88667 17.8733 4.00664 19.9933C6.12662 22.1133 9.00192 23.3042 12 23.3042V23.3042Z" fill="#1262AF"/>
<path d="M9.47656 7.19979C9.60986 7.13115 9.75951 7.10062 9.90904 7.11154C10.0586 7.12247 10.2022 7.17444 10.3241 7.26173L16.0288 11.3365C16.1344 11.4119 16.2205 11.5114 16.28 11.6268C16.3394 11.7422 16.3704 11.8701 16.3704 11.9999C16.3704 12.1297 16.3394 12.2576 16.28 12.3729C16.2205 12.4883 16.1344 12.5879 16.0288 12.6632L10.3241 16.738C10.2022 16.8252 10.0587 16.8772 9.90923 16.8881C9.75977 16.899 9.6102 16.8685 9.47694 16.8C9.34369 16.7314 9.23192 16.6274 9.15393 16.4995C9.07593 16.3715 9.03473 16.2245 9.03485 16.0746V7.9251C9.03469 7.77529 9.07584 7.62832 9.15376 7.50037C9.23169 7.37241 9.34338 7.26841 9.47656 7.19979V7.19979Z" fill="#1262AF"/>
</g>
<defs>
<clipPath id="clip0_1_2743">
<rect width="24" height="24" fill="white"/>
</clipPath>
</defs>
</svg>
