<svg width="240" height="80" viewBox="0 0 240 80" fill="none" xmlns="http://www.w3.org/2000/svg">
<g clip-path="url(#clip0_1_2013)">
<path d="M118.73 -4.67501V18.5239H99.5143L118.73 -4.67501ZM118.73 -13C118.73 -10.4519 117.717 -8.00815 115.916 -6.20637C114.114 -4.40458 111.67 -3.39235 109.122 -3.39235C106.574 -3.39235 104.13 -4.40458 102.328 -6.20637C100.527 -8.00815 99.5143 -10.4519 99.5143 -13L118.73 -13ZM121.895 18.526C121.895 15.9779 122.907 13.5341 124.709 11.7324C126.511 9.93058 128.955 8.91835 131.503 8.91835C134.051 8.91835 136.495 9.93058 138.296 11.7324C140.098 13.5341 141.11 15.9779 141.11 18.526H121.895ZM121.895 10.201V-13H141.115L121.895 10.199V10.201ZM132.642 38.3744C133.63 38.3965 134.587 38.0271 135.303 37.3466L136.623 38.7711C135.752 39.6673 134.543 40.3333 132.664 40.3333C129.443 40.3333 127.361 38.1956 127.361 35.3055C127.348 34.6431 127.468 33.9848 127.715 33.37C127.962 32.7552 128.33 32.1964 128.798 31.727C129.265 31.2576 129.822 30.8871 130.436 30.6378C131.05 30.3884 131.708 30.2652 132.37 30.2755C135.569 30.2755 137.382 32.7093 137.221 36.0845H129.661C129.928 37.4864 130.915 38.3806 132.635 38.3806L132.642 38.3744ZM134.938 34.475C134.732 33.1656 133.951 32.2016 132.389 32.2016C130.935 32.2016 129.922 33.0238 129.661 34.475H134.94H134.938ZM83 38.2655L88.8172 32.3537H83.1377V30.4996H91.5161V32.3907L85.6989 38.3004H91.5984V40.1566H83V38.2655ZM98.1289 38.3724C99.117 38.3944 100.074 38.025 100.791 37.3446L102.11 38.7691C101.239 39.6653 100.03 40.3313 98.1515 40.3313C94.9304 40.3313 92.8481 38.1935 92.8481 35.3034C92.8351 34.641 92.9556 33.9828 93.2025 33.368C93.4493 32.7532 93.8175 32.1944 94.285 31.725C94.7525 31.2555 95.3098 30.8851 95.9236 30.6357C96.5374 30.3863 97.1951 30.2631 97.8575 30.2735C101.056 30.2735 102.869 32.7073 102.709 36.0825H95.1524C95.4196 37.4844 96.4063 38.3785 98.1268 38.3785L98.1289 38.3724ZM100.429 34.473C100.223 33.1636 99.4424 32.1995 97.8801 32.1995C96.4269 32.1995 95.4135 33.0217 95.1524 34.473H100.431H100.429ZM115.276 35.3014C115.276 32.218 117.585 30.2776 120.127 30.2776C120.737 30.2695 121.342 30.395 121.898 30.6453C122.455 30.8957 122.95 31.2648 123.348 31.7268V26.0288H125.404V40.1298H123.348V38.7999C122.957 39.2809 122.463 39.6677 121.902 39.9317C121.342 40.1957 120.729 40.3302 120.109 40.3251C117.642 40.3251 115.278 38.3724 115.278 35.3034L115.276 35.3014ZM123.464 35.2829C123.447 34.68 123.254 34.0952 122.907 33.6018C122.56 33.1083 122.076 32.728 121.514 32.5085C120.952 32.289 120.338 32.24 119.749 32.3677C119.159 32.4953 118.621 32.7939 118.2 33.2261C117.779 33.6583 117.495 34.2049 117.384 34.7976C117.272 35.3903 117.338 36.0028 117.573 36.5583C117.807 37.1139 118.2 37.588 118.703 37.9213C119.206 38.2545 119.796 38.4322 120.399 38.432C122.166 38.432 123.461 37.0219 123.461 35.2829H123.464ZM138.566 38.0784L140.428 37.1123C140.674 37.5512 141.036 37.9145 141.473 38.1631C141.911 38.4116 142.408 38.5358 142.911 38.5224C144.075 38.5224 144.679 37.9263 144.679 37.248C144.679 36.4751 143.554 36.3024 142.331 36.0496C140.687 35.7001 138.975 35.1595 138.975 33.1718C138.975 31.6445 140.428 30.2324 142.716 30.2529C144.519 30.2529 145.861 30.9683 146.621 32.1235L144.895 33.069C144.656 32.7157 144.331 32.4291 143.951 32.2363C143.571 32.0435 143.148 31.9509 142.722 31.9673C141.616 31.9673 141.053 32.5079 141.053 33.1266C141.053 33.8214 141.945 34.0146 143.343 34.325C144.934 34.6744 146.734 35.1945 146.734 37.2027C146.734 38.5347 145.571 40.3313 142.817 40.3128C140.802 40.3128 139.384 39.5009 138.568 38.0722L138.566 38.0784ZM152.319 35.8379L150.689 37.6159V40.1237H148.634V26.0226H150.689V35.2582L155.053 30.4688H157.557L153.775 34.6004L157.656 40.1257H155.329L152.321 35.8379H152.319ZM109.064 30.2755C106.618 30.2755 104.573 31.8583 104.573 34.4894V40.1319H106.67V34.7505C106.67 33.1677 107.58 32.218 109.136 32.218C110.692 32.218 111.465 33.1636 111.465 34.7505V40.1319H113.55V34.4894C113.55 31.8624 111.494 30.2755 109.058 30.2755" fill="#152C5B"/>
</g>
<defs>
<clipPath id="clip0_1_2013">
<rect width="240" height="80" fill="white"/>
</clipPath>
</defs>
</svg>
